<mxfile host="app.diagrams.net" modified="2023-07-03T03:11:43.514Z" agent="Mozilla/5.0 (Windows NT 10.0; Win64; x64) AppleWebKit/537.36 (KHTML, like Gecko) Chrome/114.0.0.0 Safari/537.36" etag="Pyy8eKZhJgUwMDdgUPeJ" version="21.5.2" type="github">
  <diagram name="第 1 页" id="xWMCPYZqXw_Bkxn-ZUbK">
    <mxGraphModel dx="1380" dy="3140" grid="1" gridSize="10" guides="1" tooltips="1" connect="1" arrows="1" fold="1" page="1" pageScale="1" pageWidth="827" pageHeight="1169" math="0" shadow="0">
      <root>
        <mxCell id="0" />
        <mxCell id="1" parent="0" />
        <mxCell id="1yWSAPCUmaPLLK9qHDs9-39" style="edgeStyle=orthogonalEdgeStyle;rounded=0;orthogonalLoop=1;jettySize=auto;html=1;exitX=1;exitY=0.5;exitDx=0;exitDy=0;exitPerimeter=0;" edge="1" parent="1">
          <mxGeometry relative="1" as="geometry">
            <mxPoint x="304.25" y="-2080.5" as="sourcePoint" />
            <mxPoint x="534" y="-2080" as="targetPoint" />
          </mxGeometry>
        </mxCell>
        <mxCell id="1yWSAPCUmaPLLK9qHDs9-40" value="1. 確認是否需要排隊" style="edgeLabel;html=1;align=center;verticalAlign=middle;resizable=0;points=[];fontSize=14;" vertex="1" connectable="0" parent="1yWSAPCUmaPLLK9qHDs9-39">
          <mxGeometry x="0.0584" y="2" relative="1" as="geometry">
            <mxPoint as="offset" />
          </mxGeometry>
        </mxCell>
        <mxCell id="1yWSAPCUmaPLLK9qHDs9-45" style="edgeStyle=orthogonalEdgeStyle;rounded=0;orthogonalLoop=1;jettySize=auto;html=1;" edge="1" parent="1" source="RTP5xdDGYq9X07UVNfw--1" target="1yWSAPCUmaPLLK9qHDs9-37">
          <mxGeometry relative="1" as="geometry" />
        </mxCell>
        <mxCell id="1yWSAPCUmaPLLK9qHDs9-94" style="edgeStyle=orthogonalEdgeStyle;rounded=0;orthogonalLoop=1;jettySize=auto;html=1;entryX=0.5;entryY=0;entryDx=0;entryDy=0;" edge="1" parent="1" source="RTP5xdDGYq9X07UVNfw--1" target="1yWSAPCUmaPLLK9qHDs9-93">
          <mxGeometry relative="1" as="geometry" />
        </mxCell>
        <mxCell id="1yWSAPCUmaPLLK9qHDs9-95" value="&lt;font style=&quot;font-size: 14px;&quot;&gt;9. 暫存資料&lt;/font&gt;" style="edgeLabel;html=1;align=center;verticalAlign=middle;resizable=0;points=[];" vertex="1" connectable="0" parent="1yWSAPCUmaPLLK9qHDs9-94">
          <mxGeometry x="0.399" y="2" relative="1" as="geometry">
            <mxPoint as="offset" />
          </mxGeometry>
        </mxCell>
        <mxCell id="RTP5xdDGYq9X07UVNfw--1" value="CUBE APP" style="outlineConnect=0;dashed=0;verticalLabelPosition=bottom;verticalAlign=top;align=center;html=1;shape=mxgraph.aws3.mobile_client;fillColor=#D2D3D3;gradientColor=none;fontSize=14;" parent="1" vertex="1">
          <mxGeometry x="263.75" y="-2100" width="40.5" height="63" as="geometry" />
        </mxCell>
        <mxCell id="1yWSAPCUmaPLLK9qHDs9-15" value="CUBE APP 中台" style="outlineConnect=0;dashed=0;verticalLabelPosition=bottom;verticalAlign=top;align=center;html=1;shape=mxgraph.aws3.traditional_server;fillColor=#7D7C7C;gradientColor=none;fontSize=14;" vertex="1" parent="1">
          <mxGeometry x="260" y="-480" width="46.5" height="63" as="geometry" />
        </mxCell>
        <mxCell id="1yWSAPCUmaPLLK9qHDs9-35" value="" style="strokeColor=#dddddd;shadow=1;strokeWidth=1;rounded=1;absoluteArcSize=1;arcSize=2;fontSize=14;" vertex="1" parent="1">
          <mxGeometry x="534" y="-2100" width="170" height="60" as="geometry" />
        </mxCell>
        <mxCell id="1yWSAPCUmaPLLK9qHDs9-36" value="&lt;font style=&quot;font-size: 14px;&quot;&gt;&lt;font style=&quot;font-size: 14px;&quot; color=&quot;#000000&quot;&gt;cubeque-status&lt;/font&gt;&lt;br&gt;Cloud Run&lt;/font&gt;" style="editableCssRules=.*;html=1;fontColor=#999999;shape=image;verticalLabelPosition=middle;labelBackgroundColor=#ffffff;verticalAlign=middle;labelPosition=right;align=left;spacingLeft=20;part=1;points=[];imageAspect=0;image=data:image/svg+xml,PHN2ZyB4bWxucz0iaHR0cDovL3d3dy53My5vcmcvMjAwMC9zdmciIHhtbG5zOnY9Imh0dHBzOi8vdmVjdGEuaW8vbmFubyIgd2lkdGg9IjM2NS40NjQ5OTY3NzA0MjQ5MyIgaGVpZ2h0PSIzNzkuMjIyOTk0NDYzNTc3OTUiIHZpZXdCb3g9IjAgMCA5Ni42OTU5OTkxNDU1MDc4MSAxMDAuMzM1OTk4NTM1MTU2MjUiPiYjeGE7PHN0eWxlIHR5cGU9InRleHQvY3NzIj4mI3hhOwkuc3Qwe2ZpbGw6IzQyODVmNDt9JiN4YTsJLnN0MXtmaWxsOiNhZWNiZmE7fSYjeGE7PC9zdHlsZT4mI3hhOwk8cGF0aCBjbGFzcz0ic3QwIiBkPSJNMjkuNzk0IDEwMC4zMzZMNDYuOTIgNTAuMTY4aDQ5Ljc3NnpNMCA5OS42NzFsMTIuOTc2LTQ5LjUwMkgyOS4yMkwxNi44OTcgOTIuMDU0eiIvPiYjeGE7CTxwYXRoIGNsYXNzPSJzdDEiIGQ9Ik0yOS43OTQgMEw0Ni45MiA1MC4xNjhoNDkuNzc2ek0wIC42NjZsMTIuOTc2IDQ5LjUwMkgyOS4yMkwxNi44OTcgOC4yODN6Ii8+JiN4YTs8L3N2Zz4=;" vertex="1" parent="1yWSAPCUmaPLLK9qHDs9-35">
          <mxGeometry width="30" height="30" relative="1" as="geometry">
            <mxPoint x="15" y="15" as="offset" />
          </mxGeometry>
        </mxCell>
        <mxCell id="1yWSAPCUmaPLLK9qHDs9-51" style="edgeStyle=orthogonalEdgeStyle;rounded=0;orthogonalLoop=1;jettySize=auto;html=1;entryX=0;entryY=0.533;entryDx=0;entryDy=0;entryPerimeter=0;" edge="1" parent="1" source="1yWSAPCUmaPLLK9qHDs9-37" target="1yWSAPCUmaPLLK9qHDs9-49">
          <mxGeometry relative="1" as="geometry">
            <mxPoint x="524" y="-1910" as="targetPoint" />
          </mxGeometry>
        </mxCell>
        <mxCell id="1yWSAPCUmaPLLK9qHDs9-52" value="3.加密產生排隊號碼" style="edgeLabel;html=1;align=center;verticalAlign=middle;resizable=0;points=[];fontSize=14;" vertex="1" connectable="0" parent="1yWSAPCUmaPLLK9qHDs9-51">
          <mxGeometry x="-0.0285" y="2" relative="1" as="geometry">
            <mxPoint as="offset" />
          </mxGeometry>
        </mxCell>
        <mxCell id="1yWSAPCUmaPLLK9qHDs9-69" style="edgeStyle=orthogonalEdgeStyle;rounded=0;orthogonalLoop=1;jettySize=auto;html=1;entryX=0.5;entryY=0;entryDx=0;entryDy=0;" edge="1" parent="1" source="1yWSAPCUmaPLLK9qHDs9-37" target="1yWSAPCUmaPLLK9qHDs9-67">
          <mxGeometry relative="1" as="geometry" />
        </mxCell>
        <mxCell id="1yWSAPCUmaPLLK9qHDs9-70" value="N" style="edgeLabel;html=1;align=center;verticalAlign=middle;resizable=0;points=[];fontSize=14;" vertex="1" connectable="0" parent="1yWSAPCUmaPLLK9qHDs9-69">
          <mxGeometry x="-0.1299" y="5" relative="1" as="geometry">
            <mxPoint x="-6" as="offset" />
          </mxGeometry>
        </mxCell>
        <mxCell id="1yWSAPCUmaPLLK9qHDs9-37" value="是否排隊" style="rhombus;whiteSpace=wrap;html=1;fontSize=14;" vertex="1" parent="1">
          <mxGeometry x="244" y="-1950" width="80" height="80" as="geometry" />
        </mxCell>
        <mxCell id="1yWSAPCUmaPLLK9qHDs9-41" style="edgeStyle=orthogonalEdgeStyle;rounded=0;orthogonalLoop=1;jettySize=auto;html=1;entryX=1;entryY=0.5;entryDx=0;entryDy=0;entryPerimeter=0;" edge="1" parent="1">
          <mxGeometry relative="1" as="geometry">
            <mxPoint x="534" y="-2060" as="sourcePoint" />
            <mxPoint x="304.25" y="-2060" as="targetPoint" />
          </mxGeometry>
        </mxCell>
        <mxCell id="1yWSAPCUmaPLLK9qHDs9-42" value="2. 回傳結果" style="edgeLabel;html=1;align=center;verticalAlign=middle;resizable=0;points=[];fontSize=14;" vertex="1" connectable="0" parent="1yWSAPCUmaPLLK9qHDs9-41">
          <mxGeometry x="-0.1434" y="3" relative="1" as="geometry">
            <mxPoint x="-12" y="-3" as="offset" />
          </mxGeometry>
        </mxCell>
        <mxCell id="1yWSAPCUmaPLLK9qHDs9-48" style="edgeStyle=orthogonalEdgeStyle;rounded=0;orthogonalLoop=1;jettySize=auto;html=1;entryX=0.5;entryY=0;entryDx=0;entryDy=0;entryPerimeter=0;" edge="1" parent="1" source="1yWSAPCUmaPLLK9qHDs9-43" target="RTP5xdDGYq9X07UVNfw--1">
          <mxGeometry relative="1" as="geometry" />
        </mxCell>
        <mxCell id="1yWSAPCUmaPLLK9qHDs9-43" value="Start" style="html=1;dashed=0;whiteSpace=wrap;shape=mxgraph.dfd.start;fontSize=14;" vertex="1" parent="1">
          <mxGeometry x="244" y="-2200" width="80" height="30" as="geometry" />
        </mxCell>
        <mxCell id="1yWSAPCUmaPLLK9qHDs9-44" value="End" style="html=1;dashed=0;whiteSpace=wrap;shape=mxgraph.dfd.start;fontSize=14;" vertex="1" parent="1">
          <mxGeometry x="244" y="-1600" width="80" height="30" as="geometry" />
        </mxCell>
        <mxCell id="1yWSAPCUmaPLLK9qHDs9-61" style="edgeStyle=orthogonalEdgeStyle;rounded=0;orthogonalLoop=1;jettySize=auto;html=1;entryX=0;entryY=0.333;entryDx=0;entryDy=0;entryPerimeter=0;" edge="1" parent="1" target="1yWSAPCUmaPLLK9qHDs9-57">
          <mxGeometry relative="1" as="geometry">
            <mxPoint x="914" y="-1920" as="targetPoint" />
            <mxPoint x="704" y="-1920" as="sourcePoint" />
          </mxGeometry>
        </mxCell>
        <mxCell id="1yWSAPCUmaPLLK9qHDs9-62" value="4. 確認加密資訊是否正確" style="edgeLabel;html=1;align=center;verticalAlign=middle;resizable=0;points=[];fontSize=14;" vertex="1" connectable="0" parent="1yWSAPCUmaPLLK9qHDs9-61">
          <mxGeometry x="0.12" y="2" relative="1" as="geometry">
            <mxPoint x="-7" as="offset" />
          </mxGeometry>
        </mxCell>
        <mxCell id="1yWSAPCUmaPLLK9qHDs9-73" style="edgeStyle=orthogonalEdgeStyle;rounded=0;orthogonalLoop=1;jettySize=auto;html=1;" edge="1" parent="1" source="1yWSAPCUmaPLLK9qHDs9-49" target="1yWSAPCUmaPLLK9qHDs9-72">
          <mxGeometry relative="1" as="geometry" />
        </mxCell>
        <mxCell id="1yWSAPCUmaPLLK9qHDs9-49" value="" style="strokeColor=#dddddd;shadow=1;strokeWidth=1;rounded=1;absoluteArcSize=1;arcSize=2;fontSize=14;" vertex="1" parent="1">
          <mxGeometry x="534" y="-1942" width="170" height="60" as="geometry" />
        </mxCell>
        <mxCell id="1yWSAPCUmaPLLK9qHDs9-50" value="&lt;font style=&quot;font-size: 14px;&quot;&gt;&lt;font style=&quot;font-size: 14px;&quot; color=&quot;#000000&quot;&gt;cubeque-login&lt;/font&gt;&lt;br&gt;Cloud Run&lt;/font&gt;" style="editableCssRules=.*;html=1;fontColor=#999999;shape=image;verticalLabelPosition=middle;labelBackgroundColor=#ffffff;verticalAlign=middle;labelPosition=right;align=left;spacingLeft=20;part=1;points=[];imageAspect=0;image=data:image/svg+xml,PHN2ZyB4bWxucz0iaHR0cDovL3d3dy53My5vcmcvMjAwMC9zdmciIHhtbG5zOnY9Imh0dHBzOi8vdmVjdGEuaW8vbmFubyIgd2lkdGg9IjM2NS40NjQ5OTY3NzA0MjQ5MyIgaGVpZ2h0PSIzNzkuMjIyOTk0NDYzNTc3OTUiIHZpZXdCb3g9IjAgMCA5Ni42OTU5OTkxNDU1MDc4MSAxMDAuMzM1OTk4NTM1MTU2MjUiPiYjeGE7PHN0eWxlIHR5cGU9InRleHQvY3NzIj4mI3hhOwkuc3Qwe2ZpbGw6IzQyODVmNDt9JiN4YTsJLnN0MXtmaWxsOiNhZWNiZmE7fSYjeGE7PC9zdHlsZT4mI3hhOwk8cGF0aCBjbGFzcz0ic3QwIiBkPSJNMjkuNzk0IDEwMC4zMzZMNDYuOTIgNTAuMTY4aDQ5Ljc3NnpNMCA5OS42NzFsMTIuOTc2LTQ5LjUwMkgyOS4yMkwxNi44OTcgOTIuMDU0eiIvPiYjeGE7CTxwYXRoIGNsYXNzPSJzdDEiIGQ9Ik0yOS43OTQgMEw0Ni45MiA1MC4xNjhoNDkuNzc2ek0wIC42NjZsMTIuOTc2IDQ5LjUwMkgyOS4yMkwxNi44OTcgOC4yODN6Ii8+JiN4YTs8L3N2Zz4=;" vertex="1" parent="1yWSAPCUmaPLLK9qHDs9-49">
          <mxGeometry width="30" height="30" relative="1" as="geometry">
            <mxPoint x="15" y="15" as="offset" />
          </mxGeometry>
        </mxCell>
        <mxCell id="1yWSAPCUmaPLLK9qHDs9-57" value="" style="strokeColor=#dddddd;shadow=1;strokeWidth=1;rounded=1;absoluteArcSize=1;arcSize=2;" vertex="1" parent="1">
          <mxGeometry x="1003" y="-1940" width="230" height="60" as="geometry" />
        </mxCell>
        <mxCell id="1yWSAPCUmaPLLK9qHDs9-58" value="&lt;font style=&quot;font-size: 14px;&quot;&gt;&lt;font style=&quot;font-size: 14px;&quot; color=&quot;#000000&quot;&gt;dkrmidlxmtc01g01&lt;/font&gt;&lt;br&gt;Key Management Service&lt;/font&gt;" style="editableCssRules=.*;html=1;fontColor=#999999;shape=image;verticalLabelPosition=middle;labelBackgroundColor=#ffffff;verticalAlign=middle;labelPosition=right;align=left;spacingLeft=20;part=1;points=[];imageAspect=0;image=data:image/svg+xml,PHN2ZyB4bWxucz0iaHR0cDovL3d3dy53My5vcmcvMjAwMC9zdmciIHhtbG5zOnY9Imh0dHBzOi8vdmVjdGEuaW8vbmFubyIgd2lkdGg9IjMxMC43NzU2MDY1NDM4NjAyNSIgaGVpZ2h0PSIzNzcuOTUzMDI4ODM1NTI1NDYiIHZpZXdCb3g9Ii0wLjE0MDAwMDAwMDU5NjA0NjQ1IC0wLjQ2NzAwMDAwNzYyOTM5NDUzIDgyLjIyNTk5NzkyNDgwNDY5IDEwMC4wMDAwMDc2MjkzOTQ1MyI+JiN4YTs8c3R5bGUgdHlwZT0idGV4dC9jc3MiPiYjeGE7CS5zdDB7ZmlsbDojNDI4NWY0O30mI3hhOwkuc3Qxe2ZpbGw6IzY2OWRmNjt9JiN4YTsJLnN0MntmaWxsOiNmZmY7fSYjeGE7PC9zdHlsZT4mI3hhOwk8cGF0aCBjbGFzcz0ic3QwIiBkPSJNNDAuOTczLS40NjdsNDEuMTEzIDE3LjQ5M3YyOS42NTRjMCAyNy40MTgtMjQuNjA4IDUwLjgzNi00MS4xMTMgNTIuODUzeiIvPiYjeGE7CTxwYXRoIGNsYXNzPSJzdDEiIGQ9Ik00MC45NzMtLjQ2N0wtLjE0IDE3LjAyNXYyOS42NTRjMCAyNy40MTggMjQuNjA4IDUwLjgzNiA0MS4xMTMgNTIuODUzeiIvPiYjeGE7CTxwYXRoIGNsYXNzPSJzdDIiIGQ9Ik00MS4yNTMgMTYuNjA1Yy05LjU4NCAwLTE3LjQ0NSA3Ljg2Mi0xNy40NDUgMTcuNDQ1IDAgOC4wODQgNS41OTQgMTQuOTQyIDEzLjA5NiAxNi44OTF2OS40ODhoLTkuODY5djguNzAxaDkuODY5djUuMzc3aC02LjMxNXY4LjcwMWg2LjMxNXYyLjE5N2g4LjcwMVY1MC45NDFDNTMuMTA2IDQ4Ljk5MiA1OC43IDQyLjEzNCA1OC43IDM0LjA1YzAtOS41ODQtNy44NjMtMTcuNDQ1LTE3LjQ0Ny0xNy40NDV6bTAgOC42OTlBOC42OCA4LjY4IDAgMCAxIDUwIDM0LjA1YTguNjggOC42OCAwIDAgMS04Ljc0OCA4Ljc0NiA4LjY4IDguNjggMCAwIDEtOC43NDYtOC43NDYgOC42OCA4LjY4IDAgMCAxIDguNzQ2LTguNzQ2eiIvPiYjeGE7PC9zdmc+;" vertex="1" parent="1yWSAPCUmaPLLK9qHDs9-57">
          <mxGeometry width="24" height="30" relative="1" as="geometry">
            <mxPoint x="18" y="15" as="offset" />
          </mxGeometry>
        </mxCell>
        <mxCell id="1yWSAPCUmaPLLK9qHDs9-65" style="edgeStyle=orthogonalEdgeStyle;rounded=0;orthogonalLoop=1;jettySize=auto;html=1;entryX=1;entryY=0.5;entryDx=0;entryDy=0;entryPerimeter=0;" edge="1" parent="1">
          <mxGeometry relative="1" as="geometry">
            <mxPoint x="1000" y="-1900" as="sourcePoint" />
            <mxPoint x="704" y="-1900" as="targetPoint" />
          </mxGeometry>
        </mxCell>
        <mxCell id="1yWSAPCUmaPLLK9qHDs9-66" value="5. 回傳結果" style="edgeLabel;html=1;align=center;verticalAlign=middle;resizable=0;points=[];fontSize=14;" vertex="1" connectable="0" parent="1yWSAPCUmaPLLK9qHDs9-65">
          <mxGeometry x="-0.1434" y="3" relative="1" as="geometry">
            <mxPoint x="-12" y="-3" as="offset" />
          </mxGeometry>
        </mxCell>
        <mxCell id="1yWSAPCUmaPLLK9qHDs9-71" style="edgeStyle=orthogonalEdgeStyle;rounded=0;orthogonalLoop=1;jettySize=auto;html=1;entryX=0.5;entryY=0.5;entryDx=0;entryDy=-15;entryPerimeter=0;" edge="1" parent="1" source="1yWSAPCUmaPLLK9qHDs9-67" target="1yWSAPCUmaPLLK9qHDs9-44">
          <mxGeometry relative="1" as="geometry" />
        </mxCell>
        <mxCell id="1yWSAPCUmaPLLK9qHDs9-67" value="&lt;font style=&quot;font-size: 14px;&quot;&gt;導到登入頁&lt;/font&gt;" style="html=1;dashed=0;whiteSpace=wrap;" vertex="1" parent="1">
          <mxGeometry x="234" y="-1769" width="100" height="50" as="geometry" />
        </mxCell>
        <mxCell id="1yWSAPCUmaPLLK9qHDs9-74" style="edgeStyle=orthogonalEdgeStyle;rounded=0;orthogonalLoop=1;jettySize=auto;html=1;entryX=1;entryY=0.5;entryDx=0;entryDy=0;entryPerimeter=0;" edge="1" parent="1" source="1yWSAPCUmaPLLK9qHDs9-72" target="1yWSAPCUmaPLLK9qHDs9-44">
          <mxGeometry relative="1" as="geometry">
            <Array as="points">
              <mxPoint x="620" y="-1585" />
            </Array>
          </mxGeometry>
        </mxCell>
        <mxCell id="1yWSAPCUmaPLLK9qHDs9-75" value="N" style="edgeLabel;html=1;align=center;verticalAlign=middle;resizable=0;points=[];fontSize=14;" vertex="1" connectable="0" parent="1yWSAPCUmaPLLK9qHDs9-74">
          <mxGeometry x="-0.7902" y="-2" relative="1" as="geometry">
            <mxPoint as="offset" />
          </mxGeometry>
        </mxCell>
        <mxCell id="1yWSAPCUmaPLLK9qHDs9-77" style="edgeStyle=orthogonalEdgeStyle;rounded=0;orthogonalLoop=1;jettySize=auto;html=1;entryX=0;entryY=0.5;entryDx=0;entryDy=0;" edge="1" parent="1" source="1yWSAPCUmaPLLK9qHDs9-72" target="1yWSAPCUmaPLLK9qHDs9-76">
          <mxGeometry relative="1" as="geometry" />
        </mxCell>
        <mxCell id="1yWSAPCUmaPLLK9qHDs9-78" value="Y" style="edgeLabel;html=1;align=center;verticalAlign=middle;resizable=0;points=[];fontSize=14;" vertex="1" connectable="0" parent="1yWSAPCUmaPLLK9qHDs9-77">
          <mxGeometry x="0.1468" relative="1" as="geometry">
            <mxPoint x="-13" as="offset" />
          </mxGeometry>
        </mxCell>
        <mxCell id="1yWSAPCUmaPLLK9qHDs9-72" value="是否正確" style="rhombus;whiteSpace=wrap;html=1;fontSize=14;" vertex="1" parent="1">
          <mxGeometry x="579" y="-1784" width="80" height="80" as="geometry" />
        </mxCell>
        <mxCell id="1yWSAPCUmaPLLK9qHDs9-86" style="edgeStyle=orthogonalEdgeStyle;rounded=0;orthogonalLoop=1;jettySize=auto;html=1;entryX=0;entryY=0.5;entryDx=0;entryDy=0;" edge="1" parent="1" source="1yWSAPCUmaPLLK9qHDs9-76" target="1yWSAPCUmaPLLK9qHDs9-79">
          <mxGeometry relative="1" as="geometry" />
        </mxCell>
        <mxCell id="1yWSAPCUmaPLLK9qHDs9-88" value="6. 存資料至 SQL" style="edgeLabel;html=1;align=center;verticalAlign=middle;resizable=0;points=[];fontSize=14;" vertex="1" connectable="0" parent="1yWSAPCUmaPLLK9qHDs9-86">
          <mxGeometry x="0.5625" y="-5" relative="1" as="geometry">
            <mxPoint x="-28" y="-15" as="offset" />
          </mxGeometry>
        </mxCell>
        <mxCell id="1yWSAPCUmaPLLK9qHDs9-87" style="edgeStyle=orthogonalEdgeStyle;rounded=0;orthogonalLoop=1;jettySize=auto;html=1;entryX=0;entryY=0.5;entryDx=0;entryDy=0;" edge="1" parent="1" source="1yWSAPCUmaPLLK9qHDs9-76" target="1yWSAPCUmaPLLK9qHDs9-84">
          <mxGeometry relative="1" as="geometry" />
        </mxCell>
        <mxCell id="1yWSAPCUmaPLLK9qHDs9-90" value="&lt;font style=&quot;font-size: 14px;&quot;&gt;7. 暫存資料至 Redis&lt;/font&gt;" style="edgeLabel;html=1;align=center;verticalAlign=middle;resizable=0;points=[];" vertex="1" connectable="0" parent="1yWSAPCUmaPLLK9qHDs9-87">
          <mxGeometry x="0.5758" y="-4" relative="1" as="geometry">
            <mxPoint x="-23" y="12" as="offset" />
          </mxGeometry>
        </mxCell>
        <mxCell id="1yWSAPCUmaPLLK9qHDs9-91" style="edgeStyle=orthogonalEdgeStyle;rounded=0;orthogonalLoop=1;jettySize=auto;html=1;" edge="1" parent="1">
          <mxGeometry relative="1" as="geometry">
            <mxPoint x="806.0588235294117" y="-1719" as="sourcePoint" />
            <mxPoint x="263" y="-2080" as="targetPoint" />
            <Array as="points">
              <mxPoint x="806" y="-1530" />
              <mxPoint x="39" y="-1530" />
              <mxPoint x="39" y="-2080" />
              <mxPoint x="263" y="-2080" />
            </Array>
          </mxGeometry>
        </mxCell>
        <mxCell id="1yWSAPCUmaPLLK9qHDs9-92" value="&lt;font style=&quot;font-size: 14px;&quot;&gt;8. 回傳結果&lt;/font&gt;" style="edgeLabel;html=1;align=center;verticalAlign=middle;resizable=0;points=[];fontSize=14;" vertex="1" connectable="0" parent="1yWSAPCUmaPLLK9qHDs9-91">
          <mxGeometry x="-0.4059" y="1" relative="1" as="geometry">
            <mxPoint x="-62" as="offset" />
          </mxGeometry>
        </mxCell>
        <mxCell id="1yWSAPCUmaPLLK9qHDs9-76" value="儲存資料" style="html=1;dashed=0;whiteSpace=wrap;fontSize=14;" vertex="1" parent="1">
          <mxGeometry x="757" y="-1769" width="100" height="50" as="geometry" />
        </mxCell>
        <mxCell id="1yWSAPCUmaPLLK9qHDs9-89" value="" style="edgeStyle=orthogonalEdgeStyle;rounded=0;orthogonalLoop=1;jettySize=auto;html=1;" edge="1" parent="1" source="1yWSAPCUmaPLLK9qHDs9-79" target="1yWSAPCUmaPLLK9qHDs9-76">
          <mxGeometry relative="1" as="geometry" />
        </mxCell>
        <mxCell id="1yWSAPCUmaPLLK9qHDs9-79" value="" style="strokeColor=#dddddd;shadow=1;strokeWidth=1;rounded=1;absoluteArcSize=1;arcSize=2;" vertex="1" parent="1">
          <mxGeometry x="1007" y="-1829" width="226" height="60" as="geometry" />
        </mxCell>
        <mxCell id="1yWSAPCUmaPLLK9qHDs9-80" value="&lt;font style=&quot;font-size: 14px;&quot;&gt;&lt;font style=&quot;font-size: 14px;&quot; color=&quot;#000000&quot;&gt;dcsmidlxmtc01g01&lt;/font&gt;&lt;br&gt;Cloud SQL&lt;/font&gt;" style="editableCssRules=.*;html=1;fontColor=#999999;shape=image;verticalLabelPosition=middle;labelBackgroundColor=#ffffff;verticalAlign=middle;labelPosition=right;align=left;spacingLeft=20;part=1;points=[];imageAspect=0;image=data:image/svg+xml,PHN2ZyB4bWxucz0iaHR0cDovL3d3dy53My5vcmcvMjAwMC9zdmciIHhtbG5zOnY9Imh0dHBzOi8vdmVjdGEuaW8vbmFubyIgd2lkdGg9IjE0LjY1OTk5OTg0NzQxMjExIiBoZWlnaHQ9IjIwIiB2aWV3Qm94PSIwIDAgMTQuNjU5OTk5ODQ3NDEyMTEgMjAiPiYjeGE7CTxzdHlsZSB0eXBlPSJ0ZXh0L2NzcyI+JiN4YTsJLnN0MHtmaWxsOiM0Mjg1ZjQ7fSYjeGE7CS5zdDF7ZmlsbDojNjY5ZGY2O30mI3hhOwkuc3Qye2ZpbGw6I2FlY2JmYTt9JiN4YTsJPC9zdHlsZT4mI3hhOwk8c3R5bGU+JiN4YTsJCS5Ee2ZpbGwtcnVsZTpldmVub2RkfSYjeGE7CTwvc3R5bGU+JiN4YTsJPHBhdGggZD0iTTcuMzMgMTUuMzV2LTMuMDFMMCA4LjQ0djMuMDF6bTAgNC42NXYtMy4wMUwwIDEzLjA5djMuMDF6IiBjbGFzcz0ic3QyIEQiLz4mI3hhOwk8cGF0aCBkPSJNMTQuNjYgOC40NGwtNy4zMyAzLjl2My4wMWw3LjMzLTMuOXptMCA0LjY1bC03LjMzIDMuOVYyMGw3LjMzLTMuOXoiIGNsYXNzPSJzdDEgRCIvPiYjeGE7CTxwYXRoIGQ9Ik03LjMzIDB2My4wMWw3LjMzIDMuOVYzLjl6IiBjbGFzcz0ic3QwIEQiLz4mI3hhOwk8cGF0aCBkPSJNMCA2LjkxbDcuMzMtMy45VjBMMCAzLjl6IiBjbGFzcz0iRCBzdDEiLz4mI3hhOwk8cGF0aCBkPSJNNy4zMyAxMC43OVY3Ljc3TDAgMy44N3YzLjAyeiIgY2xhc3M9IkQgc3QyIi8+JiN4YTsJPHBhdGggZD0iTTE0LjY2IDMuODdsLTcuMzMgMy45djMuMDJsNy4zMy0zLjl6IiBjbGFzcz0iRCBzdDEiLz4mI3hhOzwvc3ZnPg==;" vertex="1" parent="1yWSAPCUmaPLLK9qHDs9-79">
          <mxGeometry width="22" height="30" relative="1" as="geometry">
            <mxPoint x="19" y="15" as="offset" />
          </mxGeometry>
        </mxCell>
        <mxCell id="1yWSAPCUmaPLLK9qHDs9-84" value="" style="strokeColor=#dddddd;shadow=1;strokeWidth=1;rounded=1;absoluteArcSize=1;arcSize=2;" vertex="1" parent="1">
          <mxGeometry x="1007" y="-1719" width="222" height="60" as="geometry" />
        </mxCell>
        <mxCell id="1yWSAPCUmaPLLK9qHDs9-85" value="&lt;font style=&quot;font-size: 14px;&quot;&gt;&lt;font style=&quot;font-size: 14px;&quot; color=&quot;#000000&quot;&gt;dmrmidlxmtc01g01&lt;/font&gt;&lt;br&gt;Memorystore&lt;/font&gt;" style="editableCssRules=.*;html=1;fontColor=#999999;shape=image;verticalLabelPosition=middle;labelBackgroundColor=#ffffff;verticalAlign=middle;labelPosition=right;align=left;spacingLeft=20;part=1;points=[];imageAspect=0;image=data:image/svg+xml,PHN2ZyB4bWxucz0iaHR0cDovL3d3dy53My5vcmcvMjAwMC9zdmciIHhtbG5zOnY9Imh0dHBzOi8vdmVjdGEuaW8vbmFubyIgd2lkdGg9IjIwIiBoZWlnaHQ9IjIwIiB2aWV3Qm94PSIwIDAgMjAgMjAiPiYjeGE7CTxzdHlsZSB0eXBlPSJ0ZXh0L2NzcyI+JiN4YTsJLnN0MHtmaWxsOiM0Mjg1ZjQ7fSYjeGE7CS5zdDF7ZmlsbDojNjY5ZGY2O30mI3hhOwkuc3Qye2ZpbGw6I2FlY2JmYTt9JiN4YTsJPC9zdHlsZT4mI3hhOwk8cGF0aCBjbGFzcz0ic3QxIiBkPSJNMCAxLjk0aDMuMzN2Mi41OEgwem0wIDQuNTFoMy4zM3YyLjU4SDB6bTAgNC41MmgzLjMzdjIuNThIMHptMCA0LjUxaDMuMzN2Mi41OEgwek0xNi42NyAxLjk0SDIwdjIuNThoLTMuMzN6bTAgNC41MUgyMHYyLjU4aC0zLjMzem0wIDQuNTJIMjB2Mi41OGgtMy4zM3ptMCA0LjUxSDIwdjIuNThoLTMuMzN6Ii8+JiN4YTsJPHBhdGggY2xhc3M9InN0MCIgZD0iTTE2LjY3IDEuOTRsMi42NiAyLjU4aC0yLjY2em0wIDQuNTFsMi42NiAyLjU4aC0yLjY2em0wIDQuNTJsMi42NiAyLjU4aC0yLjY2em0wIDQuNTFsMi42NiAyLjU5aC0yLjY2eiIgZmlsbC1ydWxlPSJldmVub2RkIi8+JiN4YTsJPHBhdGggY2xhc3M9InN0MiIgZD0iTTMuMzMgMjBoMTMuMzRWMEgzLjMzem02LTlINmw0LjY3LTcuNzRWOUgxNGwtNC42NyA3Ljc0eiIgZmlsbC1ydWxlPSJldmVub2RkIi8+JiN4YTsJPHBhdGggY2xhc3M9InN0MSIgZD0iTTE0IDkuMDNoLTMuMzNWMGg2djIwSDkuMzN2LTMuMjN6IiBmaWxsLXJ1bGU9ImV2ZW5vZGQiLz4mI3hhOzwvc3ZnPg==;" vertex="1" parent="1yWSAPCUmaPLLK9qHDs9-84">
          <mxGeometry width="30" height="30" relative="1" as="geometry">
            <mxPoint x="15" y="15" as="offset" />
          </mxGeometry>
        </mxCell>
        <mxCell id="1yWSAPCUmaPLLK9qHDs9-96" style="edgeStyle=orthogonalEdgeStyle;rounded=0;orthogonalLoop=1;jettySize=auto;html=1;entryX=0;entryY=0.5;entryDx=0;entryDy=0;entryPerimeter=0;" edge="1" parent="1" source="1yWSAPCUmaPLLK9qHDs9-93" target="1yWSAPCUmaPLLK9qHDs9-44">
          <mxGeometry relative="1" as="geometry">
            <Array as="points">
              <mxPoint x="130" y="-1585" />
            </Array>
          </mxGeometry>
        </mxCell>
        <mxCell id="1yWSAPCUmaPLLK9qHDs9-93" value="&lt;span style=&quot;font-size: 14px;&quot;&gt;Local Cache&lt;/span&gt;" style="html=1;dashed=0;whiteSpace=wrap;" vertex="1" parent="1">
          <mxGeometry x="80" y="-1935" width="100" height="50" as="geometry" />
        </mxCell>
      </root>
    </mxGraphModel>
  </diagram>
</mxfile>
